<?xml version="1.0" encoding="utf-8"?>
<svg version="1.1" id="Calque_1" xmlns="http://www.w3.org/2000/svg"
    xmlns:xlink="http://www.w3.org/1999/xlink" x="0px" y="0px"
    viewBox="0 0 24 24" style="enable-background:new 0 0 24 24;" xml:space="preserve">
<style type="text/css">
	.st0{fill:none;stroke:#000000;stroke-width:1.5;}
</style>
<g>
	<path class="st0" d="M16.04,15.26c0.83,0,1.5-0.67,1.5-1.5c0-0.83-0.67-1.5-1.5-1.5c-0.83,0-1.5,0.67-1.5,1.5
		C14.54,14.59,15.21,15.26,16.04,15.26z"/>
	<path class="st0" d="M19.21,7.5l0.69-0.06c0-0.53,0-1.32,0-1.63c0-0.45-0.18-0.88-0.49-1.2s-0.75-0.49-1.2-0.49H5.25
		c-0.6,0-1.17,0.24-1.59,0.67C3.24,5.21,3,5.78,3,6.38v11.24c0,0.6,0.24,1.17,0.66,1.59c0.42,0.42,0.99,0.66,1.59,0.67h14
		c0.45,0,0.89-0.17,1.22-0.49c0.33-0.32,0.52-0.75,0.53-1.2v-9c-0.01-0.23-0.06-0.45-0.15-0.66s-0.23-0.4-0.39-0.55
		c-0.17-0.16-0.36-0.28-0.58-0.36C19.67,7.53,19.44,7.49,19.21,7.5L19.21,7.5z"/>
	<path class="st0" d="M19.9,7.5H6.63"/>
</g>
</svg>