<?xml version="1.0" encoding="utf-8"?>
<!-- Generator: Adobe Illustrator 28.0.0, SVG Export Plug-In . SVG Version: 6.00 Build 0)  -->
<svg version="1.1" id="Calque_1" xmlns="http://www.w3.org/2000/svg" xmlns:xlink="http://www.w3.org/1999/xlink" x="0px" y="0px"
	 viewBox="0 0 355.23 56.36" style="enable-background:new 0 0 355.23 56.36;" xml:space="preserve">
<style type="text/css">
	.st0{fill:#0455B3;}
	.st1{fill:#D431CD;}
	.st2{fill:#FFFFFF;}
</style>
<g>
	<g>
		<g>
			<path class="st0" d="M198.17,43c-1.58-3.79-3.16-7.58-4.77-11.36c-0.21-0.5-0.17-0.82,0.27-1.17c4.14-3.26,4.44-8.91,2.49-12.56
				c-2.07-3.88-5.54-5.46-9.72-5.59c-4.12-0.13-8.25-0.03-12.37-0.02c-0.34,0-0.69,0.03-1.1,0.05c0,10.65,0,21.23,0,31.78
				c3.23,0,6.39,0,9.59,0c0-7.67,0-15.27,0-23.02c1.19,0.1,2.21,0.15,3.22,0.29c0.98,0.14,1.6,0.7,1.65,1.75
				c0.05,1.14-0.39,1.8-1.52,2.1c-0.67,0.18-1.37,0.24-2.14,0.38c0,2.67,0,5.33,0.01,7.98c0,0.24,0.08,0.48,0.18,0.7
				c1.37,3.12,2.74,6.24,4.14,9.35c0.1,0.23,0.45,0.49,0.68,0.49c3.23,0.03,6.45,0.02,9.79,0.02
				C198.41,43.71,198.31,43.35,198.17,43z"/>
			<path class="st0" d="M94.55,23.99c0-0.24-0.06-0.48-0.09-0.73c-0.03-0.58-0.07-1.15-0.1-1.73c-0.08-0.74-0.1-1.49-0.25-2.21
				c-0.58-2.88-1.85-5.34-4.61-6.72c-2.25-1.12-4.7-1.25-7.16-1.19c-6.53,0.15-11.14,4.66-11.22,11.15
				c-0.09,7.02-0.05,14.05-0.06,21.07c0,0.17,0.04,0.33,0.06,0.49c3.25,0,6.42,0,9.68,0c0-2.56,0-5.03,0-7.6c0.92,0,1.76,0,2.62,0
				c0-2.88,0-5.65,0-8.53c-0.9,0-1.74,0-2.66,0c0-0.73-0.04-1.36,0.01-1.99c0.08-1.23,0.12-2.47,0.35-3.67
				c0.18-0.95,0.96-1.37,1.92-1.33c0.91,0.04,1.43,0.54,1.53,1.45c0.06,0.56,0.18,1.12,0.18,1.68c0.01,6.28,0,12.56,0,18.84
				c0,0.38,0,0.76,0,1.18c3.32,0,6.53,0,9.82,0c0-0.27,0-0.47,0-0.68C94.57,36.97,94.56,30.48,94.55,23.99z"/>
			<path class="st0" d="M167.34,31.88c-0.01-2.94-0.06-5.88-0.09-8.81c-0.02-0.37-0.05-0.75-0.07-1.12c-0.09-0.91-0.1-1.84-0.3-2.73
				c-0.47-2.09-1.15-4.15-2.95-5.48c-4.08-3-8.62-3.01-13.13-1.41c-4.71,1.67-6.74,5.49-6.85,10.24
				c-0.16,6.98-0.08,13.98-0.09,20.96c0,0.2,0.04,0.4,0.06,0.58c3.25,0,6.43,0,9.68,0c0-2.56,0-5.03,0-7.6c0.91,0,1.75,0,2.62,0
				c0-2.87,0-5.65,0-8.53c-0.9,0-1.74,0-2.55,0c0-1.69-0.01-3.27,0.01-4.86c0-0.31,0.11-0.63,0.23-0.92c0.34-0.85,1-1.29,1.91-1.23
				c0.87,0.06,1.45,0.52,1.56,1.44c0.07,0.56,0.18,1.12,0.18,1.68c0,6.31-0.01,12.63-0.02,18.94c0,0.37,0,0.74,0,1.09
				c3.36,0,6.55,0,9.83,0c0-0.29,0-0.53,0-0.77C167.35,39.54,167.36,35.71,167.34,31.88z"/>
			<path class="st0" d="M117.16,21.6c2.41,0,4.78,0,7.24,0c0,7.58,0,15.04,0,22.49c3.25,0,6.4,0,9.65,0c0-7.53,0-14.99,0-22.53
				c2.44,0,4.77,0,7.16,0c0-3.11,0-6.13,0-9.21c-8.03,0-16.01,0-24.05,0C117.16,15.42,117.16,18.45,117.16,21.6z"/>
			<path class="st0" d="M114.46,11.89c-2.01-0.64-4.05-0.66-6.08-0.08c-5.79,1.65-9.2,7.54-7.66,13.6c0.56,2.19,1.71,4.23,2.64,6.32
				c0.43,0.96,0.72,1.89-0.1,2.75c-0.85,0.89-1.89,1.23-3.1,0.8c-0.52-0.18-1.01-0.44-1.64-0.71c0,2.91,0.02,5.7-0.02,8.49
				c-0.01,0.69,0.25,0.98,0.86,1.23c4.96,2.06,11.32-0.22,13.92-5.09c2.08-3.9,1.61-7.76-0.39-11.55c-0.54-1.03-1.12-2.04-1.59-3.11
				c-0.41-0.94-0.29-1.88,0.42-2.67c0.72-0.8,1.6-1.14,2.68-0.78c0.25,0.08,0.54,0.08,0.87,0.13c0-2.91,0.02-5.74-0.03-8.58
				C115.22,12.39,114.78,11.99,114.46,11.89z"/>
		</g>
		<g>
			<path class="st1" d="M218.43,12.63c-3.91-0.41-7.87-0.25-11.81-0.32c-1.67-0.03-3.33-0.01-5.04-0.01c0,10.69,0,21.2,0,31.77
				c3.24,0,6.38,0,9.62,0c0-7.5,0-14.94,0-22.5c2.58,0.12,5.08-0.2,7.45,0.76c0.61,0.25,1.24,0.57,1.73,1.01
				c2.09,1.85,2.23,4.23,1.69,6.74c-0.52,2.42-2.16,3.8-4.48,4.31c-1.61,0.36-3.29,0.43-5.01,0.63c0,3.01,0,6.07,0,9.31
				c1.23,0,2.39,0.02,3.55,0c13.36-0.23,19.2-12.99,14.59-23.39C228.43,15.76,223.9,13.2,218.43,12.63z"/>
			<path class="st1" d="M334.34,21.85c-0.18-5.22-3.02-8.91-7.52-10.02c-2.66-0.65-5.36-0.61-7.99,0.22
				c-3.09,0.98-5.26,2.99-6.59,5.94c-0.86,1.92-1.04,3.97-1.05,6.03c-0.02,6.31-0.01,12.63-0.01,18.94c0,0.35,0,0.69,0,1.08
				c3.29,0,6.46,0,9.72,0c0-0.5,0-0.92,0-1.34c0-6.21-0.01-12.41,0.01-18.62c0-0.66,0.1-1.34,0.26-1.98c0.2-0.79,0.89-1.23,1.61-1.1
				c0.59,0.1,1.14,0.58,1.62,0.99c0.23,0.2,0.25,0.65,0.36,0.98c0,6.73,0,13.45,0.01,20.18c0,0.31,0.16,0.62,0.24,0.94
				c3.11,0,6.21,0,9.39,0c0-2.92,0-5.72,0-8.51C334.4,31,334.49,26.42,334.34,21.85z"/>
			<path class="st1" d="M354.07,21.06c0.34,0.05,0.68,0.13,1.15,0.21c0-2.95,0.02-5.81-0.04-8.67c-0.01-0.25-0.51-0.64-0.84-0.72
				c-3.96-1.05-7.53-0.34-10.57,2.5c-3.68,3.45-4.57,8.82-2.3,13.82c0.61,1.35,1.37,2.65,1.97,4c0.55,1.23,0.1,2.3-1.11,2.91
				c-0.92,0.46-1.84,0.45-2.77,0.01c-0.33-0.16-0.68-0.28-1.14-0.47c0,3.03-0.02,5.9,0.03,8.77c0,0.27,0.39,0.72,0.67,0.77
				c1.51,0.31,3.04,0.71,4.58,0.75c4.1,0.1,8.36-2.79,9.9-6.57c1.58-3.87,0.99-7.55-1.02-11.11c-0.49-0.86-1-1.72-1.37-2.64
				C350.41,22.62,351.95,20.73,354.07,21.06z"/>
			<path class="st1" d="M244.88,12.24c-0.99,0.06-1.96,0.38-2.93,0.71c-0.5,0.13-1.01,0.29-1.51,0.48c-2.74,1.4-4.31,3.72-4.41,6.69
				c-0.18,5.34-0.23,10.7,0.02,16.03c0.18,3.75,2.44,6.24,6.08,7.37c0.64,0.2,1.31,0.42,1.97,0.43c3.36,0.04,6.73,0.02,10.14,0.02
				c0-2.98,0-6,0-9.09c-0.82,0-1.56,0.01-2.31,0c-1.85-0.04-3.7-0.03-5.53-0.2c-0.43-0.04-1.05-0.68-1.12-1.11
				c-0.07-0.46,0.31-1.13,0.7-1.46c0.32-0.27,0.95-0.23,1.44-0.24c1.67-0.02,3.34,0,5.01-0.01c0.41,0,0.81-0.08,1.23-0.12
				c0-1.78,0-3.44,0-5.11c0-0.66,0-1.32,0-2.1c-0.47,0-0.85,0-1.23,0c-1.56-0.01-3.13,0.01-4.69-0.04
				c-1.31-0.04-1.79-0.44-1.77-1.34c0.02-0.91,0.62-1.41,1.85-1.44c1.31-0.03,2.63-0.01,3.94-0.02c0.84,0,1.67,0,2.52,0
				c0-3.24,0-6.31,0-9.41c-0.19-0.04-0.32-0.09-0.46-0.09C250.84,12.19,247.85,12.05,244.88,12.24z"/>
			<path class="st1" d="M300.88,34.74c-0.98-0.03-1.96-0.21-2.94-0.32c-0.03,0.03-0.06,0.06-0.09,0.09h0
				c0.03-0.03,0.06-0.06,0.09-0.09c-0.07-0.07-0.14-0.14-0.21-0.21c-0.02-0.54-0.04-1.08-0.06-1.63c0,0-0.06-0.05-0.06-0.05l0,0
				c0,0,0.06,0.05,0.06,0.05c0.65-0.23,1.29-0.6,1.95-0.64c1.45-0.1,2.91-0.03,4.36-0.03c0.65,0,1.31,0,1.96,0c0-2.54,0-4.9,0-7.37
				c-0.45,0-0.83,0-1.21,0c-1.63-0.01-3.27,0.03-4.89-0.08c-0.52-0.04-1.21-0.37-1.47-0.79c-0.37-0.6-0.08-1.29,0.55-1.74
				c0.7-0.08,1.4-0.21,2.1-0.22c1.84-0.03,3.67-0.01,5.55-0.01c0-3.23,0-6.32,0-9.48c-3.3,0-6.53-0.1-9.74,0.05
				c-1.3,0.06-2.57,0.66-3.86,1.02c-0.59,0.38-1.18,0.75-1.77,1.13c0.01,0.02,0.03,0.03,0.04,0.05c-0.01-0.02-0.03-0.03-0.04-0.05
				c-0.29,0.28-0.57,0.57-0.86,0.85c0,0,0,0,0,0c-0.07,0.07-0.14,0.15-0.21,0.22c-1.49,1.55-1.95,3.52-1.99,5.53
				c-0.09,4.73-0.09,9.47,0,14.21c0.03,1.9,0.48,3.77,1.78,5.3c0.03-0.03,0.06-0.05,0.09-0.08l0,0c-0.03,0.03-0.06,0.05-0.09,0.08
				c0.17,0.19,0.33,0.38,0.5,0.58c0,0,0.05-0.05,0.05-0.05l0,0c0,0-0.05,0.05-0.05,0.05c0.41,0.38,0.82,0.75,1.22,1.13
				c0.03-0.03,0.05-0.06,0.08-0.1l0,0c-0.03,0.03-0.05,0.06-0.08,0.1c0.73,0.4,1.43,0.92,2.21,1.18c4.11,1.39,8.36,0.72,12.57,0.8
				c0.05,0,0.11-0.08,0.17-0.13c0-3.07,0-6.13,0-9.32C304.63,34.76,302.76,34.79,300.88,34.74z M291.28,14.5
				C291.28,14.5,291.28,14.5,291.28,14.5L291.28,14.5c-0.04,0.04-0.07,0.07-0.11,0.11C291.21,14.57,291.24,14.54,291.28,14.5z
				 M290.42,15.35L290.42,15.35L290.42,15.35c-0.07,0.07-0.13,0.15-0.2,0.23C290.28,15.5,290.35,15.42,290.42,15.35z"/>
			<path class="st1" d="M281.47,26c-2.34,0.04-4.69,0.02-7.03,0.02c-0.48,0-0.96,0-1.41,0c0,2.63,0,5.09,0,7.45
				c1.21,0.16,2.32,0.31,3.43,0.45c0.04-0.03,0.07-0.06,0.1-0.09h0c-0.03,0.03-0.07,0.06-0.1,0.09c0,0.38,0,0.77,0,1.15c0,0,0,0,0,0
				c-0.07,0.07-0.14,0.14-0.21,0.21c-2.09,0.7-4.01,0.2-5.84-0.86c-0.03,0.03-0.06,0.07-0.09,0.1l0,0c0.03-0.03,0.06-0.07,0.09-0.1
				c-3.24-2.48-3.61-7.15-1.48-10.48c0,0,0,0,0,0c0.5-0.5,1-1,1.5-1.5c1.32-0.79,2.72-1.47,4.28-1.34c1.5,0.13,2.99,0.49,4.57,0.76
				c0-3.03,0.02-6-0.03-8.97c0-0.25-0.39-0.61-0.67-0.72c-2.41-0.87-4.89-1.05-7.41-0.65c-2.69,0.43-5.19,1.29-7.29,3.1c0,0,0,0,0,0
				c-0.26,0.24-0.52,0.48-0.79,0.72c-0.16,0.12-0.32,0.24-0.49,0.37c0,0,0,0,0,0c-0.07,0.07-0.14,0.14-0.21,0.21
				c0.03,0.03,0.07,0.07,0.1,0.1l0,0c-0.03-0.03-0.07-0.07-0.1-0.1c-0.07,0.07-0.14,0.14-0.21,0.21c0.04,0.03,0.07,0.07,0.11,0.1
				l0,0c-0.04-0.03-0.07-0.07-0.11-0.1c-0.12,0.16-0.25,0.32-0.37,0.48c0,0,0.04,0.04,0.05,0.05c-0.01-0.01-0.05-0.05-0.05-0.05
				c-0.24,0.26-0.48,0.52-0.72,0.78c-0.62,1.01-1.23,2.03-1.85,3.04c-0.2,0.41-0.44,0.8-0.6,1.23c-1.17,3.2-1.35,6.5-0.79,9.81
				c0.45,2.7,1.42,5.23,3.25,7.35c0,0,0,0,0,0c0.22,0.28,0.44,0.56,0.66,0.84c0,0,0,0,0,0c0.07,0.07,0.14,0.15,0.2,0.22
				c0.03-0.03,0.06-0.06,0.09-0.09l0,0c-0.03,0.03-0.06,0.06-0.09,0.09c0.07,0.07,0.14,0.15,0.21,0.22c0,0,0,0,0,0
				c0.07,0.07,0.14,0.14,0.21,0.21c0.03-0.03,0.06-0.06,0.09-0.09l0,0c-0.03,0.03-0.06,0.06-0.09,0.09
				c0.21,0.21,0.43,0.43,0.64,0.64c0,0,0,0,0,0c0.07,0.07,0.14,0.14,0.22,0.21c0.03-0.03,0.06-0.06,0.09-0.09
				c-0.03,0.03-0.06,0.06-0.09,0.09c0.07,0.07,0.15,0.14,0.22,0.21c0.02-0.02,0.03-0.04,0.05-0.05c-0.02,0.02-0.03,0.04-0.05,0.05
				c0.07,0.07,0.15,0.14,0.22,0.2c0.03-0.03,0.06-0.06,0.09-0.09l0,0c-0.03,0.03-0.06,0.06-0.09,0.09c0.28,0.22,0.56,0.43,0.84,0.65
				c0.03-0.03,0.06-0.06,0.09-0.08l0,0c-0.03,0.03-0.06,0.06-0.09,0.08c0.22,0.15,0.43,0.29,0.64,0.44
				c0.02-0.03,0.05-0.06,0.08-0.09l0,0c-0.03,0.03-0.05,0.06-0.08,0.09c1.99,1.44,4.21,2.21,6.67,2.28l0.04-0.05h0
				c0,0-0.04,0.05-0.04,0.05c3.43,0.42,6.57-0.2,9.26-2.5c-0.03-0.03-0.06-0.06-0.08-0.09l0,0c0.03,0.03,0.06,0.06,0.08,0.09
				c0.26-0.24,0.52-0.48,0.78-0.72c0.07-0.07,0.14-0.14,0.21-0.21c0.07-0.07,0.14-0.14,0.21-0.21c0,0-0.05-0.05-0.05-0.05l0,0
				c0,0,0.05,0.05,0.05,0.05c0.07-0.07,0.14-0.14,0.21-0.21c0,0-0.06-0.05-0.06-0.05l0,0c0,0,0.06,0.05,0.06,0.05
				c0.17-0.19,0.34-0.38,0.51-0.57c3.11-3.5,3.01-10.09-0.21-13.78C282.57,26.11,282.11,25.99,281.47,26z M276.56,35.16
				L276.56,35.16c-0.02-0.02-0.04-0.03-0.05-0.05C276.52,35.12,276.54,35.14,276.56,35.16z M269.2,33.65
				c-0.33-0.35-0.61-0.75-0.85-1.19C268.59,32.9,268.88,33.3,269.2,33.65z M267.76,31.05c-0.09-0.28-0.16-0.58-0.21-0.87
				C267.61,30.47,267.68,30.76,267.76,31.05z M267.38,28.7c0,0.02,0,0.04,0,0.06C267.38,28.74,267.38,28.72,267.38,28.7z
				 M268.83,23.83L268.83,23.83c0.01,0.01,0.01,0.01,0.02,0.02C268.84,23.84,268.83,23.84,268.83,23.83z M263.96,14.72L263.96,14.72
				c-0.02-0.02-0.04-0.05-0.06-0.07C263.92,14.67,263.94,14.7,263.96,14.72z M263.13,15.39L263.13,15.39c0,0-0.01-0.01-0.01-0.02
				C263.12,15.38,263.13,15.39,263.13,15.39z M259.29,20.48L259.29,20.48c0,0-0.01-0.01-0.02-0.02L259.29,20.48z M261.16,38.76
				c0.01-0.01,0.01-0.01,0.02-0.02l0,0C261.17,38.74,261.16,38.75,261.16,38.76z M261.84,39.57L261.84,39.57
				c0.01,0.01,0.01,0.02,0.02,0.02C261.85,39.59,261.84,39.58,261.84,39.57z M262.25,40.01C262.25,40.01,262.25,40.01,262.25,40.01
				L262.25,40.01C262.25,40.01,262.25,40.01,262.25,40.01z"/>
		</g>
	</g>
</g>
<g>
	<path class="st2" d="M56.35,28.15C56.43,43.63,43.7,56.7,27.54,56.36C12.66,56.04-0.01,44.04,0,28.18
		C0.01,12.42,12.56-0.02,28.21,0C44.15,0.02,56.36,12.9,56.35,28.15z M40.89,49.63c4.39-2.69,7.72-6.28,9.87-10.93
		c2.05-4.43,2.74-9.06,2.09-13.91c-0.43-3.14-1.43-6.07-2.96-8.82c-0.16-0.29-0.56-0.53-0.89-0.63c-1.05-0.3-2.11-0.58-3.19-0.76
		c-1.28-0.2-2.51-0.76-3.88-0.06c-2.64,1.35-5.36,2.55-8.04,3.83c-3.17,1.51-6.49,0.82-9.77,0.69c-0.33-0.01-0.66-0.21-0.97-0.36
		c-2.94-1.38-5.87-2.8-8.84-4.14c-0.57-0.26-1.3-0.39-1.9-0.29c-1.79,0.29-3.55,0.72-5.32,1.13c-0.22,0.05-0.45,0.28-0.57,0.49
		c-1.62,2.84-2.67,5.88-3.06,9.12C2.8,30.47,3.77,35.68,6.52,40.5c2.18,3.81,5.15,6.86,8.73,8.97c1.05-0.72,1.94-1.44,2.92-1.99
		c2.66-1.47,5.63-1.82,8.58-2.04c3.11-0.23,6.2,0.18,9.18,1.1C37.79,47.13,39.62,47.87,40.89,49.63z M41.7,7.31
		c-8.84-5.95-20.46-4.75-26.98,0.04c0.31,0.1,0.59,0.17,0.86,0.27c4.02,1.39,8.05,2.79,12.08,4.16c0.31,0.11,0.73,0.1,1.04-0.01
		c2.51-0.9,4.99-1.87,7.5-2.75C37.98,8.4,39.79,7.9,41.7,7.31z M33.56,52.5c-1.27-2.36-2.84-4.12-5.69-3.96
		c-2.52,0.14-3.9,1.82-5.05,3.96C26.43,53.3,29.95,53.3,33.56,52.5z"/>
	<path class="st2" d="M45.95,32.27c-0.71-2.63-2.47-4.24-4.94-5.43c0.72,1.17,0,1.94-0.51,2.76c-0.41,0.65-0.86,1.28-1.29,1.93
		c1.62,1.74,3.1,3.59,3.89,5.9c0.61,1.78,0.17,3.55-0.15,5.3c-0.17,0.97-0.43,1.92-0.73,2.86c-0.29,0.91-1,1.2-1.83,0.78
		c-2.9-1.48-6.01-2.18-9.21-2.53c-4.96-0.54-9.74,0.23-14.36,2.1c-0.25,0.1-0.48,0.23-0.72,0.36c-0.93,0.47-1.62,0.31-1.92-0.67
		c-0.73-2.39-1.49-4.82-1.1-7.37c0.3-2.01,1.5-3.63,2.73-5.19c0.41-0.52,0.87-1.01,1.28-1.48c-0.58-1.59-2.52-2.58-1.77-4.89
		c-1.15,0.83-2.28,1.43-3.11,2.31c-0.81,0.88-1.3,2.05-1.97,3.16c-0.22-0.12-0.52-0.24-0.76-0.43c-1.77-1.42-3.08-3.19-3.95-5.27
		c-0.57-1.36-0.08-2.34,1.3-2.85c0.35-0.13,0.73-0.2,1.05-0.38c1.59-0.85,3.03-0.64,4.36,0.54c0.71,0.63,1.45,0.67,2.34,0.37
		c1.26-0.43,2.56-0.74,3.83-1.12c0.3-0.09,0.59-0.24,0.85-0.42c2.35-1.6,4.79-1.89,7.17-0.22c1.25,0.88,2.23,0.86,3.47,0
		c2.43-1.67,4.84-1.37,7.25,0.25c0.76,0.51,1.79,0.63,2.7,0.92c0.3,0.1,0.63,0.15,0.92,0.28c1.51,0.68,2.89,0.59,4.16-0.58
		c0.82-0.75,1.77-0.73,2.77-0.3c0.64,0.27,1.31,0.45,1.96,0.69c1.2,0.46,1.67,1.41,1.22,2.62c-0.83,2.2-2.24,3.99-4.05,5.48
		C46.62,31.95,46.35,32.05,45.95,32.27z M27.08,32.96c-0.12-0.82-0.25-1.57-0.32-2.34c-0.07-0.74-0.39-1.23-1.06-1.56
		c-1.13-0.54-2.26-1.09-3.35-1.71c-0.94-0.53-1.8-0.55-2.68,0.09c-0.3,0.22-0.61,0.43-0.93,0.62c-0.58,0.35-0.76,0.87-0.66,1.51
		c0.21,1.32,0.76,2.43,1.94,3.12C22.43,31.19,24.72,32.14,27.08,32.96z M36.59,32.84c0.29-0.38,0.64-0.78,0.93-1.23
		c1.36-2.07,1.09-3.08-1.06-4.31c-0.71-0.4-1.39-0.49-2.12-0.1c-1.27,0.67-2.57,1.29-3.83,1.99c-0.33,0.18-0.7,0.52-0.78,0.85
		c-0.22,0.92-0.3,1.88-0.45,2.92C31.69,32.11,33.99,31.21,36.59,32.84z"/>
</g>
</svg>
