<?xml version="1.0" encoding="utf-8"?>
<!-- Generator: Adobe Illustrator 28.0.0, SVG Export Plug-In . SVG Version: 6.00 Build 0)  -->
<svg version="1.1" id="Calque_1" xmlns="http://www.w3.org/2000/svg" xmlns:xlink="http://www.w3.org/1999/xlink" x="0px" y="0px"
	 viewBox="0 0 227.21 60" style="enable-background:new 0 0 227.21 60;" xml:space="preserve">
<style type="text/css">
	.st0{fill:url(#SVGID_1_);}
	.st1{opacity:0.9;fill:url(#SVGID_00000164511651405178173030000015258259335340540597_);enable-background:new    ;}
	.st2{opacity:0.8;}
	.st3{fill:#FFFFFF;}
	.st4{opacity:0.5;fill:url(#SVGID_00000127733783914702978550000003314671242604254100_);enable-background:new    ;}
	.st5{opacity:0.6;fill:url(#SVGID_00000034790437598039478790000013236804911987661727_);enable-background:new    ;}
	.st6{opacity:0.9;fill:url(#SVGID_00000048460006723526497280000010129877104564931515_);enable-background:new    ;}
	.st7{opacity:0.4;fill:url(#SVGID_00000135691399844874453260000001792945017945489810_);enable-background:new    ;}
	.st8{opacity:0.5;fill:url(#SVGID_00000031190125801400676780000012607772601527402168_);enable-background:new    ;}
	.st9{opacity:0.9;fill:url(#SVGID_00000059282696419987011310000002768547005478341554_);enable-background:new    ;}
	.st10{opacity:0.3;fill:url(#SVGID_00000152252217567006484420000007327109207811234467_);enable-background:new    ;}
	.st11{opacity:0.4;fill:url(#SVGID_00000067938563158322245060000002363646795360586394_);enable-background:new    ;}
	.st12{opacity:0.4;fill:url(#SVGID_00000143611552014697294950000015044866722731324831_);enable-background:new    ;}
	.st13{opacity:0.4;fill:url(#SVGID_00000023265124363031058300000018178165939843607998_);enable-background:new    ;}
	.st14{opacity:0.4;fill:url(#SVGID_00000157278901207088311670000017622451053945616304_);enable-background:new    ;}
	.st15{opacity:0.5;fill:url(#SVGID_00000111192836372066338880000008076624063050111892_);enable-background:new    ;}
	.st16{opacity:0.5;fill:url(#SVGID_00000147189034706934148750000018361072802567411604_);enable-background:new    ;}
	.st17{opacity:0.5;fill:url(#SVGID_00000104689479712208690810000012861335321459522711_);enable-background:new    ;}
	.st18{opacity:0.6;fill:url(#SVGID_00000097476912499265844590000009928203598573004170_);enable-background:new    ;}
	.st19{opacity:0.5;fill:url(#SVGID_00000086659546472310438190000014325732997887538365_);enable-background:new    ;}
	.st20{opacity:0.6;fill:url(#SVGID_00000123411024029645816430000002821088065889674910_);enable-background:new    ;}
	.st21{opacity:0.3;fill:url(#SVGID_00000035504124019434432720000005827948622430310809_);enable-background:new    ;}
	.st22{opacity:0.3;fill:url(#SVGID_00000039848483416215293240000016780418070457959341_);enable-background:new    ;}
	.st23{opacity:0.3;fill:url(#SVGID_00000035495224574027723410000007051309996475812249_);enable-background:new    ;}
	.st24{opacity:0.3;fill:url(#SVGID_00000121974461090502383390000007438266516717847707_);enable-background:new    ;}
	.st25{opacity:0.3;fill:url(#SVGID_00000048459166707556530370000005184865619787137181_);enable-background:new    ;}
	.st26{opacity:0.3;fill:url(#SVGID_00000044177912203145522590000003971955701215115142_);enable-background:new    ;}
</style>
<g>
	<g>
		<g>
			
				<linearGradient id="SVGID_1_" gradientUnits="userSpaceOnUse" x1="9.5252" y1="832.4711" x2="47.7742" y2="794.217" gradientTransform="matrix(1 0 0 1 0 -782)">
				<stop  offset="0" style="stop-color:#E6007A"/>
				<stop  offset="0.21" style="stop-color:#703AC2"/>
				<stop  offset="0.46" style="stop-color:#0070EB"/>
				<stop  offset="0.77" style="stop-color:#0297FB"/>
				<stop  offset="1" style="stop-color:#0AE2FF"/>
			</linearGradient>
			<path class="st0" d="M59.92,27.97C58.8,11.43,44.49-1.05,27.96,0.07C19.73,0.63,12.5,4.47,7.45,10.21L7.44,10.2
				c-0.04,0.05-0.07,0.09-0.1,0.14c-5.01,5.78-7.83,13.46-7.27,21.7c0.05,0.79,0.14,1.56,0.26,2.32c0,0.04,0.01,0.07,0.01,0.1
				c0.08,0.5,0.17,1.01,0.26,1.5c0.09,0.46,0.19,0.91,0.31,1.36c3.47,13.82,16.41,23.6,31.12,22.6
				c16.53-1.12,29.02-15.43,27.89-31.96L59.92,27.97z M53.39,28.41c0.14,2.03,0.01,4.03-0.35,5.95c0-0.01-0.01-0.02-0.01-0.03
				c-2.18-5.31-6.48-9.15-10.26-11.27c0.76-9.01-2.29-12.8-5.75-13.42C36.35,9.51,35.66,9.52,35,9.67
				c-0.67,0.15-1.29,0.43-1.84,0.84c-0.55,0.4-1.02,0.91-1.36,1.5c-0.35,0.59-0.57,1.24-0.66,1.92c-0.08,0.65-0.04,1.32,0.13,1.95
				c0.17,0.64,0.47,1.23,0.87,1.75s0.9,0.96,1.48,1.28c0.57,0.33,1.2,0.54,1.85,0.62c0.24,0.03,0.48,0.04,0.71,0.04
				c0.02,0.32,0.03,0.64,0.03,0.97c-3.2-0.79-6.19-0.95-8.91-0.7c-1.03,0.07-2.05,0.2-3.06,0.38c0.34-3.04,1.48-6.46,3.7-8.95
				c2.14-2.42,5.32-3.8,8.79-3.45c0.66,0.07,1.36,0.23,1.99,0.44c0.03,0.01,0.06,0.02,0.09,0.03
				C46.84,11.55,52.76,19.19,53.39,28.41L53.39,28.41z M32.48,32.99C32.48,32.99,32.48,33,32.48,32.99
				c-0.77,1.1-1.63,2.12-2.58,3.04c-1.44-1.52-2.65-3.23-3.61-5.09c-0.05-0.1-0.1-0.18-0.14-0.28v-0.01
				c-0.56-1.2-1.01-2.46-1.35-3.74c2.13-0.5,4.22-0.69,6.22-0.59l0.32,0.01h0.01c1.25,0.1,2.56,0.33,3.91,0.7
				C34.63,29.15,33.7,31.15,32.48,32.99L32.48,32.99z M22.23,7.87l-0.02,0.02c-3.52,4.54-4.69,10.18-4.64,14.51
				c-8.18,3.84-9.94,8.38-8.75,11.69c0.03,0.09,0.07,0.18,0.1,0.27c0.51,1.23,1.49,2.2,2.72,2.7s2.61,0.5,3.83-0.01
				c1.23-0.51,2.2-1.49,2.7-2.72s0.5-2.61-0.01-3.83c-0.09-0.22-0.2-0.43-0.32-0.63c0.26-0.17,0.53-0.34,0.83-0.51
				c0.91,3.17,2.26,5.84,3.84,8.08c0.57,0.85,1.19,1.66,1.86,2.45c-2.8,1.23-6.34,1.95-9.61,1.28c-3.16-0.65-5.95-2.71-7.38-5.89
				C7.11,34.66,6.9,34,6.76,33.34c-0.08-0.57-0.15-1.15-0.19-1.73C5.87,20.84,12.53,11.28,22.23,7.87z M31.59,53.39
				c-6.38,0.44-12.35-1.74-16.85-5.61c5.69,0.78,11.16-1.03,14.89-3.24c7.42,5.17,12.23,4.42,14.5,1.74
				c0.44-0.52,0.78-1.12,0.98-1.77s0.27-1.34,0.2-2.02s-0.28-1.34-0.62-1.93s-0.79-1.11-1.33-1.53c-0.52-0.4-1.12-0.69-1.76-0.86
				c-0.64-0.17-1.3-0.21-1.95-0.12s-1.28,0.3-1.85,0.64c-0.57,0.33-1.07,0.77-1.47,1.3c-0.14,0.19-0.27,0.4-0.38,0.6
				c-0.27-0.14-0.56-0.29-0.85-0.46c2.09-2.16,3.8-4.65,5.07-7.37c0.45-0.92,0.85-1.87,1.19-2.84c2.47,1.82,4.86,4.51,5.92,7.68
				c1.02,3.06,0.63,6.51-1.41,9.34c-0.4,0.55-0.86,1.05-1.38,1.5l-0.02,0.02C40.77,51.35,36.28,53.08,31.59,53.39L31.59,53.39z"/>
			
				<radialGradient id="SVGID_00000067230683313845303330000013541228188102775687_" cx="-370.411" cy="68.5484" r="1" gradientTransform="matrix(11.408 0 0 11.408 4264.1987 -758.0759)" gradientUnits="userSpaceOnUse">
				<stop  offset="0" style="stop-color:#FFFFFF"/>
				<stop  offset="1" style="stop-color:#FFFFFF;stop-opacity:0"/>
			</radialGradient>
			<path style="opacity:0.9;fill:url(#SVGID_00000067230683313845303330000013541228188102775687_);enable-background:new    ;" d="
				M37.02,9.63c-0.56-0.11-1.14-0.11-1.71-0.02c2.87,1.56,4.96,5.91,3.86,14.49c-0.36,2.79-1.18,5.5-2.43,8.03
				c-1.07,2.3-2.47,4.44-4.14,6.35c0.79,0.6,1.63,1.14,2.49,1.64c2.09-2.16,3.8-4.65,5.07-7.37c1.25-2.52,2.07-5.24,2.43-8.03
				C43.9,14.5,40.69,10.28,37.02,9.63L37.02,9.63z"/>
			<g class="st2">
				<path class="st3" d="M39.18,24.09c1.1-8.58-0.99-12.93-3.86-14.49c-0.11,0.02-0.22,0.04-0.33,0.07
					c2.81,1.62,4.83,5.96,3.75,14.43c-0.36,2.79-1.18,5.5-2.43,8.03c-1.03,2.22-2.37,4.29-3.97,6.15c0.09,0.07,0.18,0.14,0.27,0.2
					c1.67-1.91,3.07-4.05,4.14-6.36C37.99,29.6,38.82,26.89,39.18,24.09z"/>
			</g>
			
				<radialGradient id="SVGID_00000039814864395987426270000004909910893201249170_" cx="-344.8406" cy="117.7995" r="1" gradientTransform="matrix(6.6384 0 0 6.6384 2310.8765 -736.9177)" gradientUnits="userSpaceOnUse">
				<stop  offset="0" style="stop-color:#FFFFFF"/>
				<stop  offset="1" style="stop-color:#FFFFFF;stop-opacity:0"/>
			</radialGradient>
			<path style="opacity:0.5;fill:url(#SVGID_00000039814864395987426270000004909910893201249170_);enable-background:new    ;" d="
				M28.27,43.56c-0.27-0.21-0.53-0.42-0.79-0.64c-4.24,1.77-10.11,2.88-15.94,1.52c0.95,1.22,2.02,2.34,3.19,3.34
				c5.69,0.78,11.16-1.03,14.89-3.24C29.16,44.22,28.71,43.89,28.27,43.56L28.27,43.56z"/>
			
				<linearGradient id="SVGID_00000132050368340411161080000004155091686490217134_" gradientUnits="userSpaceOnUse" x1="11.7293" y1="825.9661" x2="18.1273" y2="825.8781" gradientTransform="matrix(1 0 0 1 0 -782)">
				<stop  offset="0" style="stop-color:#FFFFFF;stop-opacity:0"/>
				<stop  offset="1" style="stop-color:#FFFFFF"/>
			</linearGradient>
			<path style="opacity:0.6;fill:url(#SVGID_00000132050368340411161080000004155091686490217134_);enable-background:new    ;" d="
				M27.48,42.92c-0.13-0.11-0.26-0.22-0.38-0.32c-4.27,1.7-10.17,2.73-15.98,1.27c0.14,0.19,0.29,0.38,0.43,0.57
				C17.37,45.8,23.24,44.69,27.48,42.92z"/>
			
				<radialGradient id="SVGID_00000007390004692567537840000003340468145123616908_" cx="-483.1592" cy="-3.4532" r="1" gradientTransform="matrix(-5.704 -9.8796 9.8796 -5.704 -2701.3523 -4767.4941)" gradientUnits="userSpaceOnUse">
				<stop  offset="0" style="stop-color:#FFFFFF"/>
				<stop  offset="1" style="stop-color:#FFFFFF;stop-opacity:0"/>
			</radialGradient>
			<path style="opacity:0.9;fill:url(#SVGID_00000007390004692567537840000003340468145123616908_);enable-background:new    ;" d="
				M8.84,34.1c0.03,0.09,0.07,0.18,0.1,0.27c0.19,0.45,0.44,0.86,0.73,1.22C9.59,32.32,12.31,28.33,20.29,25
				c2.6-1.08,5.36-1.73,8.17-1.91c2.53-0.23,5.08-0.09,7.58,0.41c0.13-1.08,0.18-2.08,0.17-2.97c-2.91-0.73-5.93-0.97-8.92-0.7
				c-2.81,0.18-5.57,0.83-8.17,1.91C9.62,25.71,7.57,30.6,8.84,34.1L8.84,34.1L8.84,34.1z"/>
			<g class="st2">
				<path class="st3" d="M20.29,25c-7.98,3.34-10.7,7.33-10.62,10.59c0.07,0.09,0.15,0.17,0.23,0.25
					c-0.01-3.24,2.75-7.16,10.62-10.46c2.6-1.08,5.36-1.73,8.17-1.91c2.44-0.22,4.9-0.09,7.31,0.36c0.02-0.11,0.03-0.23,0.04-0.34
					c-2.49-0.5-5.05-0.63-7.58-0.41C25.65,23.27,22.89,23.92,20.29,25L20.29,25z"/>
			</g>
			
				<radialGradient id="SVGID_00000052808024389165043920000010899631151513503371_" cx="-538.5974" cy="-5.9343" r="1" gradientTransform="matrix(-3.3192 -5.749 5.749 -3.3192 -1706.3676 -3086.4429)" gradientUnits="userSpaceOnUse">
				<stop  offset="0" style="stop-color:#FFFFFF"/>
				<stop  offset="1" style="stop-color:#FFFFFF;stop-opacity:0"/>
			</radialGradient>
			<path style="opacity:0.4;fill:url(#SVGID_00000052808024389165043920000010899631151513503371_);enable-background:new    ;" d="
				M42.6,24.71c-0.04,0.34-0.1,0.67-0.15,1c3.65,2.78,7.54,7.32,9.29,13.04c0.58-1.43,1.01-2.92,1.3-4.43
				c-2.17-5.31-6.47-9.15-10.25-11.27C42.74,23.59,42.68,24.14,42.6,24.71L42.6,24.71z"/>
			
				<linearGradient id="SVGID_00000021088845486491895250000005100201990889298366_" gradientUnits="userSpaceOnUse" x1="51.2209" y1="820.8357" x2="47.9459" y2="815.3397" gradientTransform="matrix(1 0 0 1 0 -782)">
				<stop  offset="0" style="stop-color:#FFFFFF;stop-opacity:0"/>
				<stop  offset="1" style="stop-color:#FFFFFF"/>
			</linearGradient>
			<path style="opacity:0.5;fill:url(#SVGID_00000021088845486491895250000005100201990889298366_);enable-background:new    ;" d="
				M42.45,25.72c-0.03,0.16-0.06,0.33-0.09,0.5c3.61,2.84,7.44,7.44,9.09,13.2c0.1-0.22,0.19-0.44,0.28-0.66
				C49.98,33.03,46.09,28.5,42.45,25.72L42.45,25.72z"/>
			
				<radialGradient id="SVGID_00000160888018259898070140000010973620569482633137_" cx="-364.4298" cy="-65.0953" r="1" gradientTransform="matrix(-5.704 9.8796 -9.8796 -5.704 -2691.3916 3269.0325)" gradientUnits="userSpaceOnUse">
				<stop  offset="0" style="stop-color:#FFFFFF"/>
				<stop  offset="1" style="stop-color:#FFFFFF;stop-opacity:0"/>
			</radialGradient>
			<path style="opacity:0.9;fill:url(#SVGID_00000160888018259898070140000010973620569482633137_);enable-background:new    ;" d="
				M44.13,46.27c0.37-0.44,0.67-0.93,0.87-1.47c-2.79,1.7-7.6,1.34-14.48-3.9c-2.24-1.71-4.18-3.78-5.74-6.12
				c-1.46-2.08-2.62-4.36-3.43-6.77c-1,0.43-1.89,0.89-2.66,1.34c0.82,2.89,2.12,5.62,3.85,8.08c1.54,2.3,3.46,4.38,5.74,6.12
				C36.46,49.79,41.72,49.12,44.13,46.27L44.13,46.27L44.13,46.27z"/>
			<g class="st2">
				<path class="st3" d="M30.52,40.9c6.88,5.24,11.69,5.6,14.48,3.9c0.04-0.11,0.08-0.22,0.11-0.32c-2.8,1.63-7.58,1.2-14.36-3.97
					c-2.24-1.71-4.18-3.78-5.74-6.12c-1.41-2.01-2.53-4.2-3.34-6.51c-0.11,0.05-0.21,0.09-0.31,0.13c0.82,2.41,1.97,4.69,3.43,6.77
					C26.32,37.08,28.24,39.16,30.52,40.9L30.52,40.9L30.52,40.9z"/>
			</g>
			
				<radialGradient id="SVGID_00000100362869997493907100000015554758206845581474_" cx="-334.5623" cy="-111.8657" r="1" gradientTransform="matrix(-3.3192 5.749 -5.749 -3.3192 -1732.5138 1567.3595)" gradientUnits="userSpaceOnUse">
				<stop  offset="0" style="stop-color:#FFFFFF"/>
				<stop  offset="1" style="stop-color:#FFFFFF;stop-opacity:0"/>
			</radialGradient>
			<path style="opacity:0.3;fill:url(#SVGID_00000100362869997493907100000015554758206845581474_);enable-background:new    ;" d="
				M19.12,21.72c0.31-0.13,0.63-0.25,0.94-0.37c0.59-4.55,2.56-10.19,6.65-14.56c-1.53,0.22-3.03,0.58-4.49,1.09
				c-3.52,4.54-4.69,10.18-4.64,14.52C18.07,22.17,18.58,21.94,19.12,21.72L19.12,21.72z"/>
			
				<linearGradient id="SVGID_00000164513033965165050160000017185197897478141335_" gradientUnits="userSpaceOnUse" x1="27.0266" y1="789.1899" x2="23.9076" y2="794.7769" gradientTransform="matrix(1 0 0 1 0 -782)">
				<stop  offset="0" style="stop-color:#FFFFFF;stop-opacity:0"/>
				<stop  offset="1" style="stop-color:#FFFFFF"/>
			</linearGradient>
			<path style="opacity:0.4;fill:url(#SVGID_00000164513033965165050160000017185197897478141335_);enable-background:new    ;" d="
				M20.06,21.36c0.16-0.06,0.31-0.12,0.47-0.17c0.66-4.55,2.72-10.17,6.89-14.48c-0.24,0.03-0.47,0.06-0.71,0.09
				C22.62,11.17,20.65,16.8,20.06,21.36L20.06,21.36L20.06,21.36z"/>
			
				<linearGradient id="SVGID_00000007430861340446313070000011991560019688726434_" gradientUnits="userSpaceOnUse" x1="28.4265" y1="786.3558" x2="18.6505" y2="789.1999" gradientTransform="matrix(1 0 0 1 0 -782)">
				<stop  offset="0" style="stop-color:#231F20"/>
				<stop  offset="1" style="stop-color:#FFFFFF"/>
			</linearGradient>
			<path style="opacity:0.4;fill:url(#SVGID_00000007430861340446313070000011991560019688726434_);enable-background:new    ;" d="
				M27.96,0.07C19.73,0.63,12.5,4.47,7.45,10.21l-0.11,0.13c0.98,0.98,4.19,2.9,5.49,3.7c2.59-2.79,5.82-4.91,9.41-6.17
				c0.25-0.33,0.52-0.65,0.8-0.97c3.39-3.82,8.01-5.84,13.38-5.84c0.6,0,1.81,0.1,1.84,0.1C34.92,0.2,31.43-0.17,27.96,0.07
				L27.96,0.07z"/>
			
				<linearGradient id="SVGID_00000119818351233849430390000002907574614887693466_" gradientUnits="userSpaceOnUse" x1="9.9588" y1="823.6265" x2="18.1328" y2="832.1584" gradientTransform="matrix(1 0 0 1 0 -782)">
				<stop  offset="0" style="stop-color:#231F20"/>
				<stop  offset="1" style="stop-color:#FFFFFF"/>
			</linearGradient>
			<path style="opacity:0.4;fill:url(#SVGID_00000119818351233849430390000002907574614887693466_);enable-background:new    ;" d="
				M31.59,53.4c-6.38,0.44-12.35-1.74-16.85-5.61c-0.42-0.06-0.84-0.13-1.26-0.21c-5.01-1.02-9.07-4.02-11.75-8.67
				c-0.3-0.51-0.56-1.04-0.81-1.58c3.47,13.82,16.41,23.6,31.12,22.6C32.1,58.42,31.65,54.9,31.59,53.4L31.59,53.4z"/>
			
				<linearGradient id="SVGID_00000042705046348380073070000016024853915764156604_" gradientUnits="userSpaceOnUse" x1="53.8205" y1="822.3416" x2="56.6645" y2="813.6956" gradientTransform="matrix(1 0 0 1 0 -782)">
				<stop  offset="0" style="stop-color:#231F20"/>
				<stop  offset="1" style="stop-color:#FFFFFF"/>
			</linearGradient>
			<path style="opacity:0.4;fill:url(#SVGID_00000042705046348380073070000016024853915764156604_);enable-background:new    ;" d="
				M59.92,27.96c-0.92-0.09-5.42,0.26-6.53,0.45c0.14,2.03,0.01,4.03-0.35,5.95c0.15,0.38,0.3,0.77,0.44,1.17
				c1.62,4.85,1.05,9.86-1.63,14.51c-0.3,0.51-0.62,1.01-0.97,1.49c0,0,0.01-0.01,0.02-0.02C57,45.57,60.54,37.11,59.92,27.96
				L59.92,27.96z"/>
			
				<linearGradient id="SVGID_00000176728311913571391090000014476434797373684661_" gradientUnits="userSpaceOnUse" x1="32.8771" y1="791.3025" x2="45.9801" y2="794.3016" gradientTransform="matrix(1 0 0 1 0 -782)">
				<stop  offset="0" style="stop-color:#231F20"/>
				<stop  offset="1" style="stop-color:#FFFFFF"/>
			</linearGradient>
			<path style="opacity:0.5;fill:url(#SVGID_00000176728311913571391090000014476434797373684661_);enable-background:new    ;" d="
				M36.73,7.8c0.66,0.07,1.36,0.23,1.99,0.44c0.03,0.01,0.06,0.02,0.09,0.03c2.58,1.05,4.94,2.55,7,4.43c0,0,0.01,0.01,0.02,0.01
				c0.99-1.12,2.88-2.36,2.88-2.36s-2.9-2.97-7.34-3.89c-3.11-0.65-10.11-1.27-14.53,6.25l0.04-0.04c0.33-0.49,0.67-0.98,1.07-1.42
				C30.07,8.83,33.26,7.45,36.73,7.8z"/>
			
				<linearGradient id="SVGID_00000170986858866915246970000004845370646761109156_" gradientUnits="userSpaceOnUse" x1="46.4843" y1="824.8381" x2="37.3293" y2="834.6881" gradientTransform="matrix(1 0 0 1 0 -782)">
				<stop  offset="0" style="stop-color:#231F20"/>
				<stop  offset="1" style="stop-color:#FFFFFF"/>
			</linearGradient>
			<path style="opacity:0.5;fill:url(#SVGID_00000170986858866915246970000004845370646761109156_);enable-background:new    ;" d="
				M45.86,46.93c-0.4,0.55-0.86,1.05-1.38,1.5c-0.02,0.02-0.05,0.04-0.07,0.06c-2.2,1.7-4.68,3.01-7.33,3.85c-0.01,0-0.01,0-0.02,0
				c0.48,1.42,0.61,3.68,0.61,3.68s4.02-1.03,7.04-4.41c2.11-2.37,6.16-8.13,1.85-15.72c0,0,0.01,0.02,0.02,0.06
				c0.27,0.53,0.51,1.07,0.69,1.63C48.3,40.64,47.9,44.09,45.86,46.93L45.86,46.93z"/>
			
				<linearGradient id="SVGID_00000028308825363162310460000010456345006546540714_" gradientUnits="userSpaceOnUse" x1="10.6254" y1="819.8635" x2="6.6754" y2="807.0145" gradientTransform="matrix(1 0 0 1 0 -782)">
				<stop  offset="0" style="stop-color:#231F20"/>
				<stop  offset="1" style="stop-color:#FFFFFF"/>
			</linearGradient>
			<path style="opacity:0.5;fill:url(#SVGID_00000028308825363162310460000010456345006546540714_);enable-background:new    ;" d="
				M7.41,35.28C7.14,34.65,6.93,34,6.8,33.33c-0.01-0.03-0.01-0.06-0.02-0.09c-0.38-2.77-0.26-5.57,0.33-8.27v-0.02
				c-1.47-0.29-3.49-1.31-3.49-1.31s-1.12,4,0.3,8.3c1,3.01,3.96,9.4,12.68,9.46c0,0-0.02-0.01-0.06-0.02
				c-0.59-0.04-1.18-0.1-1.76-0.22C11.63,40.52,8.84,38.46,7.41,35.28L7.41,35.28z"/>
			
				<linearGradient id="SVGID_00000088113882136817811210000012834751890661548674_" gradientUnits="userSpaceOnUse" x1="35.733" y1="796.1249" x2="31.59" y2="800.274" gradientTransform="matrix(1 0 0 1 0 -782)">
				<stop  offset="0" style="stop-color:#231F20"/>
				<stop  offset="1" style="stop-color:#FFFFFF"/>
			</linearGradient>
			<path style="opacity:0.6;fill:url(#SVGID_00000088113882136817811210000012834751890661548674_);enable-background:new    ;" d="
				M35.46,19.52c0.24,0.03,0.48,0.04,0.71,0.03c0,0-0.16-3.12-0.54-4.72c-0.39-1.6-0.95-2.66-1.57-3.26
				c-0.45-0.43-1.85-0.97-2.94,2.33c-0.08,0.65-0.04,1.32,0.13,1.95c0.17,0.64,0.47,1.23,0.87,1.75c0.4,0.52,0.9,0.96,1.48,1.28
				C34.18,19.22,34.81,19.43,35.46,19.52L35.46,19.52L35.46,19.52z"/>
			
				<linearGradient id="SVGID_00000160878491017513539840000015539908246996522641_" gradientUnits="userSpaceOnUse" x1="13.3866" y1="814.96" x2="19.0486" y2="816.481" gradientTransform="matrix(1 0 0 1 0 -782)">
				<stop  offset="0" style="stop-color:#231F20"/>
				<stop  offset="1" style="stop-color:#FFFFFF"/>
			</linearGradient>
			<path style="opacity:0.5;fill:url(#SVGID_00000160878491017513539840000015539908246996522641_);enable-background:new    ;" d="
				M18.19,30.51c-0.09-0.22-0.2-0.43-0.32-0.63c0,0-2.62,1.69-3.81,2.82c-1.19,1.13-1.83,2.15-2.04,2.99
				c-0.15,0.6,0.09,2.08,3.49,1.38c1.23-0.51,2.2-1.49,2.7-2.72C18.71,33.11,18.7,31.73,18.19,30.51L18.19,30.51z"/>
			
				<linearGradient id="SVGID_00000047058658044235658600000013820200541565611152_" gradientUnits="userSpaceOnUse" x1="40.8566" y1="824.9041" x2="39.3396" y2="819.2441" gradientTransform="matrix(1 0 0 1 0 -782)">
				<stop  offset="0" style="stop-color:#231F20"/>
				<stop  offset="1" style="stop-color:#FFFFFF"/>
			</linearGradient>
			<path style="opacity:0.6;fill:url(#SVGID_00000047058658044235658600000013820200541565611152_);enable-background:new    ;" d="
				M36.34,39.97c-0.14,0.19-0.27,0.4-0.39,0.6c0,0,2.78,1.42,4.35,1.89c1.58,0.47,2.78,0.51,3.6,0.27c0.6-0.17,1.76-1.12-0.55-3.71
				c-0.52-0.4-1.12-0.69-1.76-0.86c-0.64-0.17-1.3-0.21-1.95-0.12s-1.28,0.3-1.85,0.64C37.23,39.01,36.74,39.45,36.34,39.97
				L36.34,39.97z"/>
			
				<linearGradient id="SVGID_00000059288135042434557310000001178277849306525314_" gradientUnits="userSpaceOnUse" x1="32.2414" y1="819.8674" x2="34.7314" y2="816.4335" gradientTransform="matrix(1 0 0 1 0 -782)">
				<stop  offset="0" style="stop-color:#231F20"/>
				<stop  offset="1" style="stop-color:#FFFFFF"/>
			</linearGradient>
			<path style="opacity:0.3;fill:url(#SVGID_00000059288135042434557310000001178277849306525314_);enable-background:new    ;" d="
				M35.26,27.05c-0.63,2.09-1.51,4-2.6,5.68c-0.06,0.09-0.11,0.17-0.17,0.27v0.01c-0.76,1.09-1.62,2.11-2.57,3.03
				c0.69,0.73,1.43,1.44,2.24,2.11c0.93,0.73,1.91,1.39,2.94,1.97c2.09-2.16,3.8-4.65,5.07-7.37c0.45-0.92,0.85-1.87,1.19-2.84
				c-1.06-0.77-2.12-1.4-3.11-1.82C37.27,27.67,36.27,27.32,35.26,27.05L35.26,27.05L35.26,27.05z"/>
			
				<linearGradient id="SVGID_00000045590221518041819260000008472505420449171386_" gradientUnits="userSpaceOnUse" x1="23.6778" y1="818.3793" x2="18.7028" y2="820.7513" gradientTransform="matrix(1 0 0 1 0 -782)">
				<stop  offset="0" style="stop-color:#231F20"/>
				<stop  offset="1" style="stop-color:#FFFFFF"/>
			</linearGradient>
			<path style="opacity:0.3;fill:url(#SVGID_00000045590221518041819260000008472505420449171386_);enable-background:new    ;" d="
				M14.73,47.79c5.69,0.78,11.16-1.03,14.89-3.24c-0.46-0.32-0.91-0.65-1.36-0.99c-1.42-1.08-2.72-2.31-3.88-3.67
				c-2.8,1.23-6.34,1.94-9.61,1.28c-3.16-0.65-5.95-2.71-7.38-5.89C7.12,34.66,6.91,34,6.77,33.33
				C7.61,39.13,10.53,44.19,14.73,47.79L14.73,47.79z"/>
			
				<linearGradient id="SVGID_00000123409098787232658490000016053318827169334163_" gradientUnits="userSpaceOnUse" x1="21.8762" y1="810.0952" x2="23.4162" y2="813.2942" gradientTransform="matrix(1 0 0 1 0 -782)">
				<stop  offset="0" style="stop-color:#231F20"/>
				<stop  offset="1" style="stop-color:#FFFFFF"/>
			</linearGradient>
			<path style="opacity:0.3;fill:url(#SVGID_00000123409098787232658490000016053318827169334163_);enable-background:new    ;" d="
				M29.92,36.04c-1.44-1.52-2.65-3.23-3.61-5.09c-0.05-0.1-0.1-0.18-0.14-0.28v-0.01c-0.56-1.2-1.01-2.46-1.35-3.74
				c-0.98,0.23-1.96,0.52-2.94,0.89c-1.09,0.44-2.16,0.96-3.17,1.55c0.91,3.17,2.26,5.84,3.84,8.08c0.57,0.85,1.19,1.66,1.86,2.45
				c1.2-0.52,2.27-1.15,3.13-1.79C28.37,37.46,29.17,36.77,29.92,36.04L29.92,36.04z"/>
			
				<linearGradient id="SVGID_00000181774256762214266420000000857093242758968213_" gradientUnits="userSpaceOnUse" x1="29.026" y1="800.222" x2="27.963" y2="796.5511" gradientTransform="matrix(1 0 0 1 0 -782)">
				<stop  offset="0" style="stop-color:#231F20"/>
				<stop  offset="1" style="stop-color:#FFFFFF"/>
			</linearGradient>
			<path style="opacity:0.3;fill:url(#SVGID_00000181774256762214266420000000857093242758968213_);enable-background:new    ;" d="
				M22.22,7.89c-3.52,4.54-4.69,10.18-4.64,14.51c0.51-0.24,1.02-0.47,1.53-0.68c1.65-0.69,3.36-1.2,5.11-1.52
				c0.34-3.04,1.48-6.46,3.7-8.95c2.14-2.42,5.32-3.8,8.8-3.44c0.66,0.07,1.36,0.23,1.99,0.44c0.03,0.01,0.06,0.02,0.09,0.02
				c-3.29-1.34-6.85-1.91-10.4-1.67c-2.16,0.15-4.22,0.59-6.17,1.27C22.22,7.88,22.22,7.89,22.22,7.89L22.22,7.89z"/>
			
				<linearGradient id="SVGID_00000007401033087193833070000001295947037533635508_" gradientUnits="userSpaceOnUse" x1="40.5244" y1="817.0297" x2="43.6044" y2="817.7387" gradientTransform="matrix(1 0 0 1 0 -782)">
				<stop  offset="0" style="stop-color:#231F20"/>
				<stop  offset="1" style="stop-color:#FFFFFF"/>
			</linearGradient>
			<path style="opacity:0.3;fill:url(#SVGID_00000007401033087193833070000001295947037533635508_);enable-background:new    ;" d="
				M53.03,34.32c-2.18-5.31-6.48-9.16-10.26-11.28c-0.05,0.54-0.1,1.09-0.18,1.67c-0.23,1.77-0.64,3.51-1.24,5.19
				c2.47,1.82,4.86,4.51,5.91,7.68c1.02,3.06,0.63,6.51-1.41,9.34c-0.4,0.55-0.86,1.05-1.38,1.5l-0.02,0.02
				c4.4-3.46,7.52-8.45,8.59-14.1C53.04,34.33,53.03,34.32,53.03,34.32L53.03,34.32z"/>
			
				<linearGradient id="SVGID_00000089561646634972421470000007451911734655110586_" gradientUnits="userSpaceOnUse" x1="35.6915" y1="806.6269" x2="31.7845" y2="805.9178" gradientTransform="matrix(1 0 0 1 0 -782)">
				<stop  offset="0" style="stop-color:#231F20"/>
				<stop  offset="1" style="stop-color:#FFFFFF"/>
			</linearGradient>
			<path style="opacity:0.3;fill:url(#SVGID_00000089561646634972421470000007451911734655110586_);enable-background:new    ;" d="
				M24.22,23.81c0.13,1.05,0.32,2.08,0.59,3.1c2.13-0.5,4.22-0.69,6.22-0.59l0.32,0.02h0.01c1.25,0.1,2.56,0.33,3.91,0.7
				c0.29-0.96,0.53-1.96,0.7-2.99c0.19-1.29,0.25-2.49,0.24-3.53c-3.2-0.79-6.19-0.95-8.91-0.7c-1.03,0.07-2.05,0.2-3.06,0.39
				C24.09,21.5,24.09,22.74,24.22,23.81L24.22,23.81z"/>
			<path class="st3" d="M168.97,20.63l-4.72,13.13h0.04l4.7-13.05L168.97,20.63z M85.24,20.63l-4.72,13.13h0.02l4.72-13.08
				L85.24,20.63z M86.43,23.91l3.53,9.85h-7.1l-1.78,4.97h10.69l3.03,8.43h6.78L89.22,16.15L86.43,23.91z"/>
			<path class="st3" d="M80.52,33.76l4.72-13.13l0.02,0.05l1.99-5.52h-5.2L69.33,47.15h6.39l4.83-13.39L80.52,33.76z M122.12,30.67
				c-1.54-0.9-3.59-1.76-6.14-2.54c-1.47-0.48-2.6-0.92-3.43-1.32c-0.83-0.4-1.4-0.87-1.72-1.38c-0.32-0.53-0.48-1.12-0.48-1.83
				c0-1.23,0.48-2.19,1.43-2.86c0.95-0.67,2.28-1.01,4.01-1.01c1.4,0,2.87,0.21,4.4,0.64c1.53,0.42,2.88,1,4.07,1.72l0.88-5.18
				c-1.21-0.72-2.68-1.31-4.4-1.75c-1.69-0.43-3.42-0.65-5.16-0.65c-2.32,0-4.35,0.38-6.06,1.14c-1.71,0.76-3.03,1.83-3.97,3.24
				s-1.42,3.07-1.42,4.97c0,1.64,0.32,3.04,0.95,4.23c0.64,1.2,1.66,2.22,3.09,3.09c1.43,0.87,3.31,1.66,5.64,2.36
				c1.69,0.51,2.98,0.99,3.91,1.43c0.93,0.45,1.58,0.95,1.94,1.49c0.37,0.55,0.55,1.2,0.55,1.95c0,1.32-0.54,2.35-1.61,3.09
				s-2.58,1.11-4.48,1.11c-1.66,0-3.38-0.26-5.2-0.78c-1.81-0.53-3.38-1.19-4.74-2l-0.59,5.34c0.78,0.54,1.77,1,2.94,1.39
				c1.17,0.39,2.44,0.71,3.81,0.93c1.36,0.22,2.71,0.34,4.07,0.34c3.79,0,6.77-0.87,8.93-2.59c2.16-1.72,3.24-4.12,3.24-7.17
				c0-1.62-0.35-3.04-1.05-4.23C124.78,32.63,123.67,31.57,122.12,30.67L122.12,30.67z M155.7,15.15h-27.06v5.22h27.06V15.15z
				 M145.39,22.56h-6.44v24.58h6.44V22.56z M164.26,33.76l4.72-13.13L169,20.7l2-5.55h-5.23l-12.71,31.99h6.4l3.03-8.43h0.01
				l1.8-4.97h-0.05V33.76z M170.16,23.94l3.53,9.82h-7.07l-1.78,4.97h10.66l3.03,8.43h6.78l-12.35-30.97L170.16,23.94z
				 M206.13,34.19c1.53-0.86,2.82-2.05,3.79-3.52c0.99-1.48,1.48-3.19,1.48-5.16c0-2.14-0.48-3.97-1.43-5.51
				c-0.95-1.54-2.31-2.74-4.08-3.58c-1.77-0.84-3.87-1.26-6.32-1.26h-2.24V20h1.39c4.26,0,6.4,1.82,6.4,5.47s-2.2,5.47-6.61,5.47
				h-1.18v4.84h3.29l6.73,11.36h7.2L206.13,34.19L206.13,34.19z M195.15,15.15h-6.11v31.98h6.11V15.15z"/>
		</g>
	</g>
</g>
</svg>
