<?xml version="1.0" encoding="utf-8"?>
<!-- Generator: Adobe Illustrator 28.0.0, SVG Export Plug-In . SVG Version: 6.00 Build 0)  -->
<svg version="1.1" id="Calque_1" xmlns="http://www.w3.org/2000/svg" xmlns:xlink="http://www.w3.org/1999/xlink" x="0px" y="0px"
	 viewBox="0 0 108.89 106.87" style="enable-background:new 0 0 108.89 106.87;" xml:space="preserve">
<style type="text/css">
	.st0{fill:url(#SVGID_1_);}
</style>
<linearGradient id="SVGID_1_" gradientUnits="userSpaceOnUse" x1="50.3351" y1="-0.7511" x2="59.7153" y2="106.4645" gradientTransform="matrix(1 0 0 -1 0 105.488)">
	<stop  offset="0" style="stop-color:#35AE73"/>
	<stop  offset="1" style="stop-color:#D7DB2F"/>
</linearGradient>
<path class="st0" d="M75.64,50.63c5.85,1.56,11.39,2.75,16.73,4.44c3.6,1.12,7.2,2.5,10.36,4.5c6.69,4.19,7.98,10.93,3.67,17.49
	c-1.16,1.75-2.57,3.37-4.05,4.94c-4.31,4.75-8.75,9.37-12.93,14.25c-5.34,6.19-14.02,6.75-19.81,1.06
	c-4.37-4.31-6.69-9.75-8.88-15.24c-1.09-2.69-2.06-5.44-3.09-8.12C57.31,74,56.99,74,56.67,74.06c-0.06,3.12-0.32,6.19-0.13,9.31
	c0.39,6.19,1.54,12.25,4.05,18.06c0.58,1.31,1.42,2.81-0.13,4.12c-2.32,2.06-4.7,1.75-5.79-1.31c-1.74-4.75-3.15-9.62-4.25-14.56
	C49.72,86.43,49.72,83,49.33,79c-0.71,1.56-1.16,2.56-1.67,3.5c-2.57,4.56-4.7,9.43-7.85,13.5c-5.34,6.81-13.96,7.06-20.01,0.87
	c-2.7-2.75-4.76-6.12-7.33-9c-2.7-2.94-5.6-5.62-8.56-8.31c-5.53-5.06-5.79-16.31,3.02-20.87c6.3-3.25,12.93-5.44,20.01-6.44
	c1.61-0.25,3.22-0.56,4.76-0.87c0.06-0.19,0.13-0.44,0.13-0.62c-1.09-0.37-2.12-0.81-3.22-1.19c-6.88-2.12-13.83-4.19-19.88-8.25
	C3.27,37.7,0.25,31.14,2.37,26.14c1.03-2.56,2.83-5.19,5.08-6.87c5.79-4.37,10.87-9.37,15.95-14.56c7.27-7.44,17.37-5.87,22.32,3.31
	c3.54,6.44,5.66,13.37,7.01,20.49c0.32,1.75,0.77,3.44,1.16,5.12c0.19,0,0.39-0.06,0.58-0.06c0.96-4.12,1.8-8.31,2.96-12.43
	c1.67-5.94,3.73-11.68,8.11-16.31c5.27-5.62,13.38-6.06,19.04-0.81c2.96,2.75,5.47,6,8.43,8.75c2.51,2.31,5.27,4.44,8.04,6.44
	c7.72,5.62,7.14,17.12-2.06,22.43c-6.63,3.81-13.83,6.44-21.29,8.25C77.12,50.07,76.54,50.32,75.64,50.63z"/>
</svg>
