<?xml version="1.0" standalone="no"?>
<!DOCTYPE svg PUBLIC "-//W3C//DTD SVG 20010904//EN"
 "http://www.w3.org/TR/2001/REC-SVG-20010904/DTD/svg10.dtd">
<svg version="1.0" xmlns="http://www.w3.org/2000/svg"
 width="127.000000pt" height="127.000000pt" viewBox="0 0 127.000000 127.000000"
 preserveAspectRatio="xMidYMid meet">

<g transform="translate(0.000000,127.000000) scale(0.100000,-0.100000)"
fill="#6acae0" stroke="none">
<path d="M355 1227 c-30 -9 -52 -28 -91 -76 -28 -35 -75 -80 -104 -100 -73
-49 -92 -78 -93 -138 -1 -78 28 -115 126 -163 45 -21 112 -47 149 -56 66 -18
74 -34 17 -34 -43 0 -182 -40 -229 -66 -57 -32 -81 -65 -88 -119 -6 -58 18
-104 84 -161 30 -25 70 -70 88 -98 57 -90 117 -120 189 -97 52 17 83 54 133
156 l44 90 0 -51 c0 -67 13 -136 40 -207 22 -60 38 -69 73 -43 17 13 17 17 4
43 -36 70 -64 283 -40 306 3 4 20 -31 38 -77 63 -167 131 -236 219 -222 58 10
81 28 130 104 24 37 66 85 94 107 57 45 77 81 77 140 0 58 -35 101 -109 136
-70 32 -165 59 -213 59 -56 0 -44 15 25 34 79 21 187 70 220 100 35 31 52 70
52 117 0 56 -28 98 -95 142 -30 20 -73 60 -96 89 -23 29 -54 61 -70 71 -36 24
-104 25 -146 3 -56 -28 -120 -167 -138 -296 -11 -79 -17 -77 -35 10 -51 241
-131 334 -255 297z"/>
</g>
</svg>
