<?xml version="1.0" encoding="utf-8"?>
<!-- Generator: Adobe Illustrator 28.0.0, SVG Export Plug-In . SVG Version: 6.00 Build 0)  -->
<svg version="1.1" id="Calque_1" xmlns="http://www.w3.org/2000/svg" xmlns:xlink="http://www.w3.org/1999/xlink" x="0px" y="0px"
	 viewBox="0 0 171.74 13.32" style="enable-background:new 0 0 171.74 13.32;" xml:space="preserve">
<style type="text/css">
	.st0{fill:#FFFFFF;}
</style>
<g>
	<path class="st0" d="M10.97,4.64c0,3.07-1.94,4.84-5.33,4.84H2.99v3.77H0V0.06h5.65C9.03,0.06,10.97,1.72,10.97,4.64z M8.11,4.73
		c0-1.46-0.95-2.19-2.63-2.19H2.99v4.47h2.49C7.16,6.99,8.11,6.24,8.11,4.73z"/>
	<path class="st0" d="M15.7,0.06v6.58h6.03V0.06h3.01v13.19h-3.01V9.28H15.7v3.96H12.7V0.04L15.7,0.06z"/>
	<path class="st0" d="M36.3,10.61h-6.1l-1.06,2.64h-3.1l5.78-13.19h3.1l5.69,13.19h-3.22L36.3,10.61z M35.23,7.97l-1.96-4.8
		l-1.98,4.8H35.23z"/>
	<g>
		<path class="st0" d="M61.67,10.61h-6.1l-1.08,2.64h-3.1l5.78-13.19h3.1l5.69,13.19h-3.22L61.67,10.61z M60.6,7.97l-1.95-4.8
			l-1.98,4.8H60.6z"/>
		<path class="st0" d="M45,0.06v10.6h5.71v2.6h-8.71V0.07L45,0.06z"/>
	</g>
	<path class="st0" d="M76.18,0.07l6.47,8.48V0.07h2.85v13.17h-2.74l-6.45-8.46v8.46h-2.86V0.07H76.18z"/>
	<path class="st0" d="M97.57,0.07v2.47h-7.15V5.4h6.41v2.47h-6.41v2.92h7.34v2.45H87.43V0.07H97.57z"/>
	<path class="st0" d="M109.87,0.07v2.52h-4.06v10.65h-3.01V2.59h-4.06V0.07H109.87z"/>
	<path class="st0" d="M113.96,0.07l2.8,9.94l2.78-9.94h2.95l2.81,9.94l2.78-9.94h3.08l-4.43,13.19h-3.1l-2.67-9.4l-2.74,9.39h-3.09
		l-4.39-13.19L113.96,0.07z"/>
	<path class="st0" d="M145.6,6.64c0,3.78-3.06,6.68-7.1,6.68c-4.04,0-7.1-2.88-7.1-6.68c0-3.8,3.06-6.64,7.1-6.64
		C142.53,0,145.6,2.84,145.6,6.64z M134.46,6.64c-0.01,1.08,0.42,2.12,1.18,2.89c0.76,0.77,1.81,1.21,2.9,1.21
		c0.82,0.01,1.62-0.22,2.3-0.67c0.68-0.44,1.22-1.08,1.53-1.82c0.32-0.74,0.41-1.56,0.26-2.36c-0.15-0.79-0.54-1.52-1.11-2.1
		c-0.57-0.58-1.3-0.97-2.1-1.13c-0.8-0.16-1.63-0.09-2.39,0.22c-0.75,0.3-1.4,0.83-1.86,1.49C134.71,5.04,134.46,5.83,134.46,6.64z"
		/>
	<path class="st0" d="M154.86,13.24l-2.11-3.76h-3.06v3.76h-3V0.07h5.78c3.48,0,5.46,1.66,5.46,4.58c0,2.03-0.87,3.5-2.49,4.26
		l2.85,4.34H154.86z M149.7,6.99h2.78c1.66,0,2.6-0.75,2.6-2.26s-0.95-2.19-2.6-2.19h-2.78V6.99z"/>
	<path class="st0" d="M168.13,13.24l-3.82-5.37l-1.92,2.11v3.26h-2.99V0.07h3.01v5.99l5.53-5.99h3.48l-5.01,5.5l5.34,7.67H168.13z"
		/>
</g>
</svg>
