<?xml version="1.0" encoding="utf-8"?>
<!-- Generator: Adobe Illustrator 28.0.0, SVG Export Plug-In . SVG Version: 6.00 Build 0)  -->
<svg version="1.1" id="Calque_1" xmlns="http://www.w3.org/2000/svg" xmlns:xlink="http://www.w3.org/1999/xlink" x="0px" y="0px"
	 viewBox="0 0 65.96 13.22" style="enable-background:new 0 0 65.96 13.22;" xml:space="preserve">
<style type="text/css">
	.st0{fill:#FFFFFF;}
</style>
<g>
	<path class="st0" d="M10.97,4.6c0,3.07-1.94,4.84-5.33,4.84H2.99v3.77H0V0.02h5.65C9.03,0.02,10.97,1.68,10.97,4.6z M8.11,4.69
		c0-1.46-0.95-2.19-2.63-2.19H2.99v4.47h2.49C7.16,6.95,8.11,6.2,8.11,4.69z"/>
	<path class="st0" d="M15.7,0.02V6.6h6.03V0.02h3.01v13.19h-3.01V9.24H15.7v3.96h-3V0L15.7,0.02z"/>
	<path class="st0" d="M36.3,10.57h-6.1l-1.06,2.64h-3.1l5.78-13.19h3.1l5.69,13.19h-3.22L36.3,10.57z M35.23,7.93l-1.96-4.8
		l-1.98,4.8H35.23z"/>
	<g>
		<path class="st0" d="M61.67,10.57h-6.1l-1.08,2.64h-3.1l5.78-13.19h3.1l5.69,13.19h-3.22L61.67,10.57z M60.6,7.93l-1.95-4.8
			l-1.98,4.8H60.6z"/>
		<path class="st0" d="M45,0.02v10.6h5.71v2.6H42V0.03L45,0.02z"/>
	</g>
</g>
</svg>
